<?xml version="1.0" encoding="utf-8"?>
<!-- Generator: Adobe Illustrator 25.1.0, SVG Export Plug-In . SVG Version: 6.00 Build 0)  -->
<svg version="1.1" id="Calque_1" xmlns="http://www.w3.org/2000/svg" xmlns:xlink="http://www.w3.org/1999/xlink" x="0px" y="0px"
	 viewBox="0 0 437 165.6" style="enable-background:new 0 0 437 165.6;" xml:space="preserve">
<style type="text/css">
	.st0{fill:#020203;}
	.st1{fill:#EC650A;}
	.st2{fill:none;}
	.st3{fill:#F5F4F4;}
	.st4{font-family:'TimesNewRomanPS-BoldMT';}
	.st5{font-size:85.8px;}
	.st6{letter-spacing:2.5;}
	.st7{font-size:20.8px;}
	.st8{letter-spacing:-1;}
</style>
<g id="Calque_6">
	<rect y="0" class="st0" width="437" height="165.6"/>
</g>
<g id="Calque_3">
	<path class="st1" d="M93.9,77c0,0.5,0,1,0,1.6c0,5.6-1.9,11.1-5.4,15.5c0,0,0,0-0.1,0.1c-1,1.3-1.6,2.8-1.8,4.4
		c-0.6,4.1-0.1,4.4-0.6,6.6c-0.2,1.8-1,3.4-2.1,4.8c-1.1,1.1-2.4,1.9-3.9,2.2c0,0-11.6,2.1-16.4,2.5c-3.7-0.7-2.7-2.9-2.7-2.9
		c-0.1-0.4,0-0.8,0.1-1.2c0.5-1.4,2.6-2.3,5.1-2.2c2.5-0.1,5.1-0.4,7.6-0.8c5.4-1,6.2-2.1,6.5-2.5c0.6-0.9,0.6-2.2,0.6-4.7V100
		c-0.1-1.4,0.1-2.8,0.4-4.2c0.4-1.4,1-2.8,1.9-4c0.5-0.7,0.6-0.6,1.8-2.3c0.6-0.8,1.2-1.7,1.8-2.6l0,0c1.4-2.5,2.1-5.3,2.1-8.1
		c0-0.4,0-0.8,0-1.3c0-0.4,0-0.8,0-1.2c-0.2-10.1-8.6-18.1-18.7-17.8c-9.7,0.2-17.6,8.1-17.8,17.8c0,0.4,0,0.8,0,1.2
		c0,0.4,0,0.8,0,1.3c0,2.2,0.4,4.4,1.3,6.4c0.2,0.4,1,1.9,2.8,5c0.4,0.7,0.8,1.4,1.3,2.1c0.3,0.5,0.5,0.7,0.9,1.2
		c0.4,0.5,0.7,1,1,1.6c0.2,0.6,0.3,1.2,0.4,1.9c0.1,0.4,0.2,0.9,0.2,1.5c0,0.2,0,0.3,0,0.4c0,0.4,0.1,1,0.1,1.6
		c0.1,0.9,0.2,1.9,0.1,2.8c0,0.9-0.1,1.7-0.2,2.6c-0.2,0.6-0.5,1-1,1.4c-0.7,0.5-1.5,0.6-2.3,0.4c-0.6-0.1-1.2-0.5-1.6-1
		c-1.9-2.5-1.7-6.5-1.7-10c0-0.3-0.1-0.7-0.3-1c-0.3-0.7-0.8-1.3-1.4-1.8c-3.4-4.4-5.3-9.8-5.3-15.4c0-0.5,0-1.1,0-1.6s0-1,0-1.4
		c0-12.4,10.5-22.5,23.5-22.5s23.5,10.1,23.5,22.5C93.9,76,93.9,76.5,93.9,77z"/>
	<path class="st1" d="M59.1,94l-0.4-0.4C58.9,93.7,59,93.9,59.1,94z"/>
	<path class="st1" d="M61.9,120c-0.3-0.7-0.4-1.5-0.1-2.3c0.2-0.5,0.6-0.9,1-1.2c0.6-0.3,1.2-0.5,1.9-0.6c0.6-0.1,1.3-0.2,2.2-0.4
		c0.3,0,0.8-0.1,1.5-0.2c1-0.2,1.6-0.3,2.3-0.4s1-0.2,2.8-0.4c3.3-0.4,3-0.4,3.6-0.5c1.8-0.3,3.5,0.2,4.1,1.2c0.3,0.4,0.5,1,0.4,1.6
		c-0.1,0.4-0.2,0.9-0.5,1.2c-0.3,0.4-0.7,0.8-1.1,1c-0.6,0.3-1.2,0.6-1.9,0.8c-1.1,0.3-2.1,0.5-3.2,0.6c-1.7,0.2-1.9,0.4-3.9,0.8
		c-1.9,0.4-3.9,0.6-5.9,0.7c-0.8,0.1-1.7-0.1-2.4-0.6C62.4,120.9,62.1,120.5,61.9,120z"/>
	<path class="st1" d="M61.9,127.2c-0.3-0.7-0.4-1.5-0.1-2.3c0.2-0.5,0.6-0.9,1-1.2c0.6-0.3,1.2-0.5,1.9-0.6c0.6-0.1,1.3-0.2,2.2-0.4
		c0.3,0,0.8-0.1,1.5-0.2c1-0.2,1.6-0.3,2.3-0.4s1-0.2,2.8-0.4c3.3-0.4,3-0.4,3.6-0.5c1.8-0.3,3.5,0.2,4.1,1.2c0.3,0.4,0.5,1,0.4,1.6
		c-0.1,0.4-0.2,0.9-0.5,1.2c-0.3,0.4-0.7,0.7-1.1,0.9c-0.6,0.3-1.2,0.6-1.9,0.8c-1.1,0.3-2.1,0.5-3.2,0.6c-1.7,0.2-1.9,0.4-3.9,0.8
		c-1.9,0.4-3.9,0.6-5.9,0.7c-0.8,0.1-1.7-0.1-2.4-0.6C62.4,128,62.1,127.6,61.9,127.2z"/>
	<path class="st1" d="M71.8,128.6c2.1-0.2,3.6-0.7,4.8-0.2c0.2,0.1,1,0.4,0.9,0.8c0,0.3-0.1,0.6-0.2,0.8v0.1l-0.1,0.1
		c-0.7,1.1-1.6,1.9-2.7,2.6c-0.6,0.3-1.2,0.4-1.8,0.5c-0.7,0.1-1.4,0.1-2.1,0c-0.7-0.1-1.3-0.3-1.9-0.6c-0.5-0.3-1-0.8-1.4-1.2
		c-0.8-0.8-0.8-1.1-0.8-1.3c0.1-0.2,0.2-0.4,0.4-0.6C68.2,128.9,70.4,128.8,71.8,128.6z"/>
	<path class="st1" d="M34.4,72.6c1.1,0,2.2,0,3.3,0.1c1.1,0.1,2.1,0.4,3.1,0.7c0.7,0.2,1.4,0.6,1.8,1.2c0.5,0.6,0.7,1.3,0.7,2
		c0,0.5-0.1,1-0.4,1.5c-0.2,0.4-0.4,0.7-0.7,1c-0.3,0.3-0.7,0.5-1.1,0.5c-0.9,0.2-1.8,0.4-2.7,0.5c-1.5,0.2-3,0.3-4.6,0.1
		c-1.7,0.1-3.4-0.1-5-0.5l-0.2-0.1c-0.3-0.2-0.6-0.3-0.9-0.6c-0.4-0.3-0.7-0.6-1-1c-0.2-0.5-0.3-1.1-0.2-1.6c0-0.3,0.1-0.7,0.2-1
		c0.1-0.4,0.3-0.8,0.6-1.1c0.3-0.3,0.6-0.5,1-0.7l0.1-0.1c0.7-0.4,1.4-0.7,2.2-0.8C31.9,72.6,33.2,72.5,34.4,72.6z"/>
	<path class="st1" d="M106.6,72.6c-1.1,0-2.2,0-3.3,0.1c-1.1,0.1-2.1,0.4-3.2,0.7c-0.7,0.2-1.3,0.6-1.8,1.2c-0.5,0.6-0.7,1.3-0.7,2
		c0,0.5,0.2,1,0.4,1.5c0.2,0.4,0.4,0.7,0.7,1c0.3,0.3,0.7,0.5,1.1,0.5c0.9,0.2,1.8,0.4,2.7,0.5c1.5,0.2,3,0.3,4.6,0.1
		c1.7,0.1,3.4-0.1,5-0.5l0.2-0.1c0.3-0.2,0.6-0.3,0.9-0.6c0.4-0.3,0.7-0.6,1-1c0.2-0.5,0.3-1.1,0.3-1.6c0-0.3-0.1-0.7-0.2-1
		c-0.1-0.4-0.3-0.8-0.6-1.1c-0.3-0.3-0.6-0.5-1-0.7c0,0-0.1-0.1-0.2-0.1c-0.7-0.4-1.4-0.7-2.2-0.8C109.1,72.6,107.9,72.5,106.6,72.6
		z"/>
	<path class="st1" d="M47.7,48.2c0.8,0.7,1.6,1.5,2.3,2.4c0.7,0.8,1.3,1.7,1.8,2.7c0.4,0.6,0.6,1.4,0.5,2.1c0,0.7-0.3,1.4-0.8,1.9
		c-0.4,0.4-0.8,0.7-1.3,0.8c-0.4,0.2-0.8,0.3-1.2,0.3c-0.4,0-0.8-0.1-1.2-0.4c-0.8-0.4-1.6-0.9-2.3-1.5c-1.2-0.9-2.4-1.9-3.4-3
		c-1.3-1.1-2.4-2.3-3.3-3.8l-0.1-0.2c-0.1-0.3-0.2-0.7-0.3-1c-0.1-0.5-0.1-0.9-0.1-1.4c0.2-0.5,0.5-1,0.9-1.3
		c0.2-0.2,0.5-0.5,0.8-0.6c0.4-0.2,0.8-0.4,1.2-0.4c0.4,0,0.8,0.1,1.2,0.1h0.2c0.8,0.2,1.5,0.5,2.2,0.9
		C45.9,46.6,46.8,47.4,47.7,48.2z"/>
	<path class="st1" d="M92.8,48.2c-0.8,0.7-1.6,1.5-2.3,2.4c-0.7,0.8-1.3,1.7-1.8,2.7c-0.4,0.6-0.6,1.4-0.5,2.1
		c0,0.7,0.3,1.4,0.8,1.9c0.4,0.4,0.8,0.7,1.3,0.8c0.4,0.2,0.8,0.3,1.2,0.3c0.4,0,0.8-0.1,1.2-0.4c0.8-0.4,1.6-0.9,2.3-1.5
		c1.2-0.9,2.4-1.9,3.4-3c1.3-1.1,2.4-2.3,3.3-3.8c0-0.1,0.1-0.1,0.1-0.2c0.1-0.3,0.2-0.7,0.3-1c0.1-0.5,0.1-0.9,0.1-1.4
		c-0.2-0.5-0.5-1-0.9-1.3c-0.3-0.2-0.5-0.5-0.8-0.6c-0.4-0.2-0.8-0.4-1.2-0.4c-0.4,0-0.8,0.1-1.2,0.1h-0.2c-0.8,0.2-1.5,0.5-2.2,0.9
		C94.6,46.6,93.7,47.4,92.8,48.2z"/>
	<path class="st1" d="M74.3,40.9c0.1,1.1,0.1,2.2,0,3.3c-0.1,1.1-0.3,2.1-0.6,3.2c-0.2,0.7-0.6,1.4-1.1,1.8c-0.6,0.5-1.3,0.8-2,0.8
		c-0.5,0-1-0.1-1.5-0.3c-0.4-0.1-0.8-0.4-1.1-0.7c-0.3-0.3-0.5-0.7-0.6-1.1c-0.3-0.9-0.5-1.8-0.6-2.7c-0.3-1.5-0.4-3-0.3-4.6
		c-0.2-1.7,0-3.4,0.4-5c0-0.1,0-0.1,0-0.2c0.1-0.3,0.3-0.6,0.5-0.9c0.2-0.4,0.6-0.7,0.9-1c0.5-0.3,1-0.4,1.6-0.3
		c0.3,0,0.7,0.1,1,0.2c0.4,0.1,0.8,0.3,1.1,0.5c0.3,0.3,0.6,0.6,0.8,1l0.1,0.1c0.4,0.7,0.8,1.4,1,2.2C74.2,38.5,74.3,39.7,74.3,40.9
		z"/>
	<path class="st1" d="M65.2,87.1l-10.2-7.5v-1.8l10.2-8.5v2.8L57,78.6l8.2,5.7L65.2,87.1z"/>
	<path class="st1" d="M74.4,65.6l-5.8,25.8h-1.9l5.8-25.8H74.4z"/>
	<path class="st1" d="M75.9,84.3l8.2-5.7l-8.2-6.5v-2.8l10.3,8.5v1.8l-10.3,7.5V84.3z"/>
</g>
<g id="Separation">
	<line class="st2" x1="279.1" y1="-18.3" x2="349.8" y2="-89"/>
	<rect x="131.9" y="30.8" class="st3" width="2" height="104"/>
</g>
<g id="titre">
	<text transform="matrix(0.8077 0 0 1 150.1196 97.82)" class="st3 st4 st5 st6">AMweb</text>
	<text transform="matrix(1.0231 0 0 1 151.7402 124.11)" class="st1 st4 st7">Intégrateu</text>
	<text transform="matrix(1.0231 0 0 1 247.4736 124.11)" class="st1 st4 st7">r</text>
	<text transform="matrix(1.0231 0 0 1 256.1318 124.11)" class="st1 st4 st7">-Designe</text>
	<text transform="matrix(1.0231 0 0 1 334.1494 124.11)" class="st1 st4 st7">r </text>
	<text transform="matrix(1.0231 0 0 1 348.1416 124.11)" class="st1 st4 st7 st8">W</text>
	<text transform="matrix(1.0231 0 0 1 368.251 124.11)" class="st1 st4 st7">eb</text>
</g>
</svg>
