<svg xmlns="http://www.w3.org/2000/svg" width="46.748" height="46.748" viewBox="0 0 46.748 46.748">
  <g id="Groupe_152" data-name="Groupe 152" transform="translate(112 174)">
    <g id="Groupe_140" data-name="Groupe 140" transform="translate(0 0)">
      <path id="Exclusion_5" data-name="Exclusion 5" d="M-4284.474,171.748a23.225,23.225,0,0,1-9.1-1.837A23.294,23.294,0,0,1-4301,164.9a23.292,23.292,0,0,1-5.009-7.429,23.229,23.229,0,0,1-1.837-9.1,23.234,23.234,0,0,1,1.837-9.1,23.294,23.294,0,0,1,5.009-7.43,23.294,23.294,0,0,1,7.429-5.009,23.225,23.225,0,0,1,9.1-1.837,23.227,23.227,0,0,1,9.1,1.837,23.292,23.292,0,0,1,7.43,5.009,23.3,23.3,0,0,1,5.009,7.43,23.233,23.233,0,0,1,1.836,9.1,23.231,23.231,0,0,1-1.837,9.1,23.289,23.289,0,0,1-5.01,7.43,23.294,23.294,0,0,1-7.429,5.009A23.224,23.224,0,0,1-4284.474,171.748Zm6.884-27.161a5.826,5.826,0,0,0-6.037,6.01,5.838,5.838,0,0,0,6.037,6.034,5.5,5.5,0,0,0,5.887-4.772.1.1,0,0,0-.021-.085.1.1,0,0,0-.079-.038h-3.135a.1.1,0,0,0-.1.08,2.555,2.555,0,0,1-2.552,2.31,2.989,2.989,0,0,1-2.729-2.971l-.01-.094h8.752V150.6A5.814,5.814,0,0,0-4277.59,144.587Zm-19.471-3.992a.1.1,0,0,0-.1.1v15.831a.1.1,0,0,0,.1.1h7.919a4.845,4.845,0,0,0,4.84-4.838,4.049,4.049,0,0,0-2.49-3.72l-.141-.061.125-.089a4.049,4.049,0,0,0,1.693-3.279,4.043,4.043,0,0,0-4.027-4.049Zm15.927.79a.1.1,0,0,0-.1.1v2.3a.1.1,0,0,0,.1.1h7.063a.1.1,0,0,0,.1-.1v-2.3a.1.1,0,0,0-.1-.1Zm-8.426,11.95h-4.307V149.46h3.913c.379,0,2.273.093,2.333,1.928a1.837,1.837,0,0,1-.528,1.348A1.978,1.978,0,0,1-4289.56,153.335Zm14.521-3.99h-5.128l.019-.1a2.549,2.549,0,0,1,2.559-2.153,2.557,2.557,0,0,1,2.528,2.149l.022.1Zm-14.915-2.368h-3.913V143.89h3.837a1.6,1.6,0,0,1,1.588,1.217,1.548,1.548,0,0,1-.312,1.3A1.545,1.545,0,0,1-4289.955,146.977Z" transform="translate(4195.847 -299)" fill="red"/>
    </g>
  </g>
</svg>
