<svg xmlns="http://www.w3.org/2000/svg" width="46.747" height="46.748" viewBox="0 0 46.747 46.748">
  <g id="fbicon" transform="translate(0 0)">
    <path id="Exclusion_3" data-name="Exclusion 3" d="M-4166.58,171.748h0a23.227,23.227,0,0,1-9.1-1.837,23.294,23.294,0,0,1-7.429-5.009,23.293,23.293,0,0,1-5.009-7.43,23.231,23.231,0,0,1-1.837-9.1,23.233,23.233,0,0,1,1.837-9.1,23.294,23.294,0,0,1,5.009-7.43,23.293,23.293,0,0,1,7.429-5.009,23.225,23.225,0,0,1,9.1-1.837,23.227,23.227,0,0,1,9.1,1.837,23.3,23.3,0,0,1,7.429,5.009,23.294,23.294,0,0,1,5.009,7.43,23.233,23.233,0,0,1,1.837,9.1,23.231,23.231,0,0,1-1.837,9.1,23.293,23.293,0,0,1-5.009,7.43,23.3,23.3,0,0,1-7.429,5.009A23.227,23.227,0,0,1-4166.58,171.748Zm-7.72-26.974v4.649h2.6V161.3h5.471V149.423h3.691l.478-4.645h-4.168v-2.736a1.118,1.118,0,0,1,1.161-1.267h2.94v-4.513l-4.051-.017a5.178,5.178,0,0,0-4.447,1.953,6.138,6.138,0,0,0-1.074,3.567v3.008Z" transform="translate(4189.954 -125)" fill="rgb(247, 243, 231, 100%)"/>
  </g>
</svg>
