<svg xmlns="http://www.w3.org/2000/svg" width="46.748" height="46.748" viewBox="0 0 46.748 46.748">
  <g id="Groupe_153" data-name="Groupe 153" transform="translate(0 0.001)">
    <g id="Groupe_100" data-name="Groupe 100">
      <path id="Exclusion_8" data-name="Exclusion 8" d="M-4172.218,148.748a23.216,23.216,0,0,1-9.1-1.836,23.262,23.262,0,0,1-7.43-5.01,23.29,23.29,0,0,1-5.01-7.43,23.213,23.213,0,0,1-1.837-9.1,23.22,23.22,0,0,1,1.837-9.1,23.307,23.307,0,0,1,5.01-7.431,23.287,23.287,0,0,1,7.43-5.009,23.208,23.208,0,0,1,9.1-1.837,23.214,23.214,0,0,1,9.1,1.837,23.3,23.3,0,0,1,7.43,5.009,23.3,23.3,0,0,1,5.011,7.431,23.231,23.231,0,0,1,1.835,9.1,23.223,23.223,0,0,1-1.835,9.1,23.312,23.312,0,0,1-5.011,7.43,23.276,23.276,0,0,1-7.43,5.01A23.222,23.222,0,0,1-4172.218,148.748Zm-5.669-35.978a6.977,6.977,0,0,0-6.971,6.968V131.08a6.977,6.977,0,0,0,6.971,6.968h11.34a6.976,6.976,0,0,0,6.968-6.968V119.738a6.976,6.976,0,0,0-6.968-6.968Zm11.313,23.237h-11.286a4.96,4.96,0,0,1-4.954-4.955V119.767a4.96,4.96,0,0,1,4.954-4.954h11.286a4.96,4.96,0,0,1,4.954,4.954v11.283A4.96,4.96,0,0,1-4166.574,136.006Zm-5.643-17.258a6.67,6.67,0,0,0-6.662,6.662,6.67,6.67,0,0,0,6.662,6.662,6.669,6.669,0,0,0,6.662-6.662A6.669,6.669,0,0,0-4172.216,118.748Zm6.888-1.716a1.5,1.5,0,0,0-1.494,1.494,1.5,1.5,0,0,0,1.494,1.494,1.5,1.5,0,0,0,1.494-1.494A1.5,1.5,0,0,0-4165.328,117.032Zm-6.888,12.723a4.35,4.35,0,0,1-4.346-4.344,4.351,4.351,0,0,1,4.346-4.346,4.35,4.35,0,0,1,4.344,4.346A4.349,4.349,0,0,1-4172.216,129.755Z" transform="translate(4195.59 -102.001)" fill="rgb(247, 243, 231, 100%)"/>
    </g>
  </g>
</svg>
