<svg xmlns="http://www.w3.org/2000/svg" width="46.748" height="46.748" viewBox="0 0 46.748 46.748">
  <g id="Groupe_151" data-name="Groupe 151" transform="translate(0 0)">
    <g id="Groupe_135" data-name="Groupe 135" transform="translate(0 0)">
      <g id="Groupe_131" data-name="Groupe 131">
        <path id="Exclusion_4" data-name="Exclusion 4" d="M-4225.578,171.748a23.231,23.231,0,0,1-9.1-1.837,23.294,23.294,0,0,1-7.429-5.009,23.288,23.288,0,0,1-5.01-7.43,23.232,23.232,0,0,1-1.837-9.1,23.231,23.231,0,0,1,1.837-9.1,23.287,23.287,0,0,1,5.01-7.429,23.294,23.294,0,0,1,7.429-5.009,23.232,23.232,0,0,1,9.1-1.837,23.226,23.226,0,0,1,9.1,1.837,23.293,23.293,0,0,1,7.429,5.009,23.291,23.291,0,0,1,5.009,7.429,23.233,23.233,0,0,1,1.836,9.1,23.234,23.234,0,0,1-1.836,9.1,23.293,23.293,0,0,1-5.009,7.43,23.293,23.293,0,0,1-7.429,5.009A23.225,23.225,0,0,1-4225.578,171.748Zm4.231-24.439c1.968,0,2.381,1.738,2.381,3.2v7.564h4.7v-8.106a6.872,6.872,0,0,0-1.546-4.809,5.086,5.086,0,0,0-3.865-1.553,4.643,4.643,0,0,0-4.236,2.335v-2h-4.7c.057,1.2.01,11.93,0,14.069v.067h4.7v-7.9a3.107,3.107,0,0,1,.156-1.145A2.618,2.618,0,0,1-4221.347,147.309Zm-14.564-3.377v14.137h4.7V143.932Zm2.419-7.216a2.422,2.422,0,0,0-2.419,2.42,2.422,2.422,0,0,0,2.419,2.42,2.422,2.422,0,0,0,2.42-2.42A2.422,2.422,0,0,0-4233.492,136.716Z" transform="translate(4248.953 -125)" fill="rgb(247, 243, 231, 100%)"/>
      </g>
    </g>
  </g>
</svg>
