<svg id="Calque_1" data-name="Calque 1" xmlns="http://www.w3.org/2000/svg" viewBox="0 0 225.67 103.79"><defs><style>.cls-1{fill:#d9c6a5;}.cls-2{fill:#a35d6a;}.cls-3{isolation:isolate;}.cls-4{fill:#f7f3e7;}</style></defs><g id="Logo_-_1" data-name="Logo - 1"><path id="Tracé_40" data-name="Tracé 40" class="cls-1" d="M58.8,103.14l-45-80.07a1.34,1.34,0,0,1,.44-1.78l.56-.34a1.24,1.24,0,0,1,1.69.43.25.25,0,0,1,0,.07l45.08,80.07a1.34,1.34,0,0,1-.44,1.78l-.56.34A1.36,1.36,0,0,1,58.8,103.14Z" transform="translate(0.01 0)"/><path id="Tracé_41" data-name="Tracé 41" class="cls-1" d="M41.23,2.15,3,85.9a1.2,1.2,0,0,1-1.56.66l-.11,0-.62-.28A1.33,1.33,0,0,1,.11,84.5L38.38.75A1.2,1.2,0,0,1,39.94.09l.12.05.61.28A1.29,1.29,0,0,1,41.23,2.15Z" transform="translate(0.01 0)"/><ellipse id="Ellipse_2" data-name="Ellipse 2" class="cls-2" cx="24.33" cy="80.59" rx="7.09" ry="14.9"/><g id="Atypique" class="cls-3"><g class="cls-3"><path class="cls-1" d="M55.47,29l3.46-.64c.7.57.65,1.48-.16,2.72l-3.11.19.77,8.77a4.87,4.87,0,0,1-2.8.33,5.22,5.22,0,0,1-2.77-1l.64-7.77-4.22.25-1,.13L43,40.06a5.5,5.5,0,0,1-2.93.3A2.67,2.67,0,0,1,38,39.29l3.55-6.78-2.24.25c-.72-.81-.67-1.73.16-2.75l3.46-.1,2.36-4.51L48,17.75a10.1,10.1,0,0,1,3-.89,8.75,8.75,0,0,1,4.61.38l-.61,5.44Zm-8.35.8,4.51-.1-.32-9.41-.38.1Z" transform="translate(0.01 0)"/><path class="cls-1" d="M74.48,24.57l-5.76.22q-.19,2.37-.67,6.68c-.32,2.87-.54,4.87-.64,6A16.65,16.65,0,0,0,72,35a1.61,1.61,0,0,1,1.3.46,2.31,2.31,0,0,1,.21,1.46A16.22,16.22,0,0,1,70.27,39a14.81,14.81,0,0,1-3.89,1.41c-2.22-.25-3.57-1.14-4.06-2.65q2.12-7.14,3.2-12.45l-4.16.73a2.16,2.16,0,0,1,0-2.91l4.38.07L65.46,18q3.51-2,5.27-.38l-1.56,5,5.31-1Q75.61,22.59,74.48,24.57Z" transform="translate(0.01 0)"/><path class="cls-1" d="M75.85,35.1l1.61-4.39A61.42,61.42,0,0,0,77.29,23a5.29,5.29,0,0,1,2.84-.14,4.47,4.47,0,0,1,2.54,1.39A61.28,61.28,0,0,1,80.3,34.27a2.86,2.86,0,0,0,.8,1.08,5,5,0,0,0,1.6.77,20.6,20.6,0,0,0,4.1-4,77.9,77.9,0,0,1,1.82-9.18,8.82,8.82,0,0,1,3.3,0,2.58,2.58,0,0,1,1.69,1.3l-3,5.53Q89,38.49,88.14,47.19c-1.36,1.8-3.84,2.64-7.42,2.53A11.64,11.64,0,0,1,76.94,47a7.55,7.55,0,0,1-1.85-3.38,4.69,4.69,0,0,1,2.22-1.87,2.65,2.65,0,0,1,2.35.17,8.07,8.07,0,0,0,2.53,4.9,1.94,1.94,0,0,0,1.7-.48q.63-2.76,1.5-7.81l1.41-2.59-.42-.38a40.73,40.73,0,0,1-3.65,3.71C78.66,38.7,76.37,37.32,75.85,35.1Z" transform="translate(0.01 0)"/><path class="cls-1" d="M99.37,27.45l.32.38a47.47,47.47,0,0,1,4.39-5,8.73,8.73,0,0,1,5.44,2.48,10.12,10.12,0,0,1,2.24,5.36,12,12,0,0,1-3.3,5.67,23,23,0,0,1-6.24,4.09A9.54,9.54,0,0,1,99,39.32q-.7,6.18-1.44,9.57a5.5,5.5,0,0,1-3,.37,3.32,3.32,0,0,1-2.29-1.14,95.58,95.58,0,0,0,4.29-18.75l-1-5.18a5.58,5.58,0,0,1,4.8-1.35,7,7,0,0,1,0,3.11ZM102,37.82a14.56,14.56,0,0,0,3.49-3.2,10.61,10.61,0,0,0,1.82-4.13,5.12,5.12,0,0,0-.91-2.69,4.7,4.7,0,0,0-2.16-1.69,27.08,27.08,0,0,0-4.38,4.51q-.14,1.5-.61,6.08A8.22,8.22,0,0,0,102,37.82Z" transform="translate(0.01 0)"/><path class="cls-1" d="M115.73,29.31l-.16-5.64q3.39-1.5,5.08-.16l-1.4,4.9q-.36,3.42-.9,11.58a4.54,4.54,0,0,1-2.93.36A3.76,3.76,0,0,1,113,39.1,66,66,0,0,0,115.73,29.31Zm5.44-10.63a2.39,2.39,0,0,1-.71,1.81,2.43,2.43,0,0,1-1.81.75A2.65,2.65,0,0,1,116,18.7a2.29,2.29,0,0,1,.74-1.78,2.57,2.57,0,0,1,1.84-.73,2.5,2.5,0,0,1,1.81.72A2.53,2.53,0,0,1,121.17,18.68Z" transform="translate(0.01 0)"/><path class="cls-1" d="M135.21,44.86l.26.22c.41-.34,1.09-.95,2.05-1.82l1.79-1.63c.68-.05,1,.34,1.09,1.15a48,48,0,0,1-3.31,3.9q-2.21,2.37-2.64,2.88a6.5,6.5,0,0,1-2.92-1.12,2.18,2.18,0,0,1-1-1.69c1.5-4.78,2.57-8.61,3.24-11.49q-3.3,3.42-4.45,4.73a7.74,7.74,0,0,1-5.23-1.64A5.62,5.62,0,0,1,122.29,34a11,11,0,0,1,3-7.52,9.65,9.65,0,0,1,7.17-3.65,6.51,6.51,0,0,1,3.1,3.2,7.09,7.09,0,0,1,.52-3.17,8.88,8.88,0,0,1,3.26,0A2.46,2.46,0,0,1,141,24.22l-2.62,5.05Q136.29,40.16,135.21,44.86Zm-8.09-11a3.17,3.17,0,0,0,1.85,3.1c2.63-2.3,4.45-3.91,5.48-4.83l.64-3.36a16.88,16.88,0,0,0-1.32-2,5.53,5.53,0,0,0-1.44-1.26,8.32,8.32,0,0,0-3.82,3.39A9.39,9.39,0,0,0,127.12,33.82Z" transform="translate(0.01 0)"/><path class="cls-1" d="M159.92,24.22l-2.63,5.05A100.38,100.38,0,0,0,157.07,40a4,4,0,0,1-2.67.37,5.15,5.15,0,0,1-2.71-1.2l1.51-3.61-.39-.32c-.87,1.15-2.4,2.89-4.57,5.21q-5.76-.7-6.69-4l2-5.21q0-1.25,0-2.43c0-2.2,0-4.15-.1-5.86a6.05,6.05,0,0,1,2.93-.11,4,4,0,0,1,2.35,1.33,59.49,59.49,0,0,1-2.66,11.36c.22.66,1,1.18,2.24,1.56a34.81,34.81,0,0,0,4.52-5,81.7,81.7,0,0,1,2.08-9.21,10,10,0,0,1,3.34,0A2.45,2.45,0,0,1,159.92,24.22Z" transform="translate(0.01 0)"/><path class="cls-1" d="M171.5,22.55a5.67,5.67,0,0,1,4.37,2.64,6.82,6.82,0,0,1,.43,5.08A44.77,44.77,0,0,1,166,33.82a5.13,5.13,0,0,0,2.78,3.84A15,15,0,0,0,174.67,35c1.19,0,1.68.63,1.47,2a9.76,9.76,0,0,1-3.49,2.13,19.15,19.15,0,0,1-4.44,1.29,8.44,8.44,0,0,1-5.27-2.73,7.39,7.39,0,0,1-1.65-5A8.92,8.92,0,0,1,163,28,19,19,0,0,1,171.5,22.55Zm-5.6,9.32V32a40.55,40.55,0,0,0,6.4-2.46q.39-3.11-1.82-4.35l-.55.19a9.62,9.62,0,0,0-2.84,3A7.34,7.34,0,0,0,165.9,31.87Z" transform="translate(0.01 0)"/></g></g><g id="Hôtel_Mobile" data-name="Hôtel Mobile" class="cls-3"><g class="cls-3"><path class="cls-4" d="M70.52,71a5.85,5.85,0,0,1,2.71-.86,4.35,4.35,0,0,1,1.84.34l-2.18,7.88-.08.68h2.86l4.16-.63c0-.07.17-.87.44-2.42l.19-5a5.85,5.85,0,0,1,2.71-.86,4.2,4.2,0,0,1,1.83.34L82.92,78,85,77.64c.66.41.62,1.19-.1,2.34l-2.24.15c-.37,3.63-.64,6.61-.83,9a3.9,3.9,0,0,1-2.47.28,2.34,2.34,0,0,1-1.9-1c.87-2.95,1.54-5.61,2-8l-6.84.52c-.09.92-.22,2.35-.4,4.3s-.31,3.25-.38,3.89a3.87,3.87,0,0,1-2.46.28,2.43,2.43,0,0,1-1.91-1c.68-2.25,1.29-4.63,1.85-7.12l-1.67.18A1.77,1.77,0,0,1,67.85,79h1.92c.19-1,.37-2,.54-3.07Z" transform="translate(0.01 0)"/><path class="cls-4" d="M86.3,83.23a7.38,7.38,0,0,1,1.1-3.56,10.66,10.66,0,0,1,3-3.38,6.32,6.32,0,0,1,3.87-1.43A3.6,3.6,0,0,1,96.6,76a9.33,9.33,0,0,1,2.05,2.73,7.06,7.06,0,0,1,.84,3.07,6.17,6.17,0,0,1-1.2,3.34,10.38,10.38,0,0,1-3.11,3.08,6.73,6.73,0,0,1-3.65,1.22A4.85,4.85,0,0,1,88,87.52,6.27,6.27,0,0,1,86.3,83.23ZM98,73.87a3.74,3.74,0,0,1-1.66-.34l-1.46-3-3.74,3.3c-.94,0-1.43-.35-1.48-.94l4.49-4.13a4.51,4.51,0,0,1,3.38.42l2.21,4A2.53,2.53,0,0,1,98,73.87Zm-4.11,2.91a9.48,9.48,0,0,0-2.78,2.83,9.09,9.09,0,0,0-1.3,3.54,5.86,5.86,0,0,0,2,4.39A8,8,0,0,0,96.21,82,8.67,8.67,0,0,0,93.84,76.78Z" transform="translate(0.01 0)"/><path class="cls-4" d="M112.36,76.55l-4.68.18c-.11,1.28-.29,3.09-.55,5.42s-.43,3.95-.52,4.87a13.69,13.69,0,0,0,3.72-2,1.26,1.26,0,0,1,1,.37,1.83,1.83,0,0,1,.17,1.19,13.45,13.45,0,0,1-2.61,1.74,12,12,0,0,1-3.16,1.14q-2.7-.31-3.3-2.16,1.71-5.79,2.6-10.11l-3.38.6a1.76,1.76,0,0,1,0-2.37l3.56,0L105,71.24q2.87-1.63,4.29-.31L108,75l4.32-.81Q113.26,74.93,112.36,76.55Z" transform="translate(0.01 0)"/><path class="cls-4" d="M121.66,74.91a4.53,4.53,0,0,1,3.55,2.14,5.5,5.5,0,0,1,.35,4.12,36.11,36.11,0,0,1-8.37,2.89,4.2,4.2,0,0,0,2.26,3.12A12.16,12.16,0,0,0,124.24,85c1,0,1.37.51,1.19,1.64a7.93,7.93,0,0,1-2.83,1.73,15.59,15.59,0,0,1-3.61,1,6.9,6.9,0,0,1-4.28-2.22,6,6,0,0,1-1.34-4,7.26,7.26,0,0,1,1.35-3.83A15.45,15.45,0,0,1,121.66,74.91Zm-4.55,7.56v.08a32.5,32.5,0,0,0,5.2-2A3.21,3.21,0,0,0,120.83,77l-.44.16a7.81,7.81,0,0,0-2.31,2.47A6.06,6.06,0,0,0,117.11,82.47Z" transform="translate(0.01 0)"/><path class="cls-4" d="M130.74,75.43l0-6.58c1.68-1,3.16-1.25,4.42-.68l-1.66,6q-1.12,12.66-1.36,14.84a3.76,3.76,0,0,1-2.5.31,2.48,2.48,0,0,1-2-1A83.25,83.25,0,0,0,130.74,75.43Z" transform="translate(0.01 0)"/><path class="cls-4" d="M163.71,70.67a6.26,6.26,0,0,1,2.37-.55,2.28,2.28,0,0,1,1.66.58l-2.14,7.72c0,.67-.2,2.24-.44,4.7s-.42,4.45-.54,6a3.94,3.94,0,0,1-2.47.28,2.41,2.41,0,0,1-1.9-1,100.43,100.43,0,0,0,2.57-11.13l.11-1-4.87,8a3.23,3.23,0,0,1-3.43-.62A31.49,31.49,0,0,1,152.37,76l-.57,2.34c-.07.85-.23,2.49-.48,4.91s-.44,4.37-.56,5.83a3.9,3.9,0,0,1-2.47.28,2.34,2.34,0,0,1-1.9-1A102.72,102.72,0,0,0,149.25,76l.29-5.15a4.49,4.49,0,0,1,2.4-.7,3.43,3.43,0,0,1,2.12.65A41.4,41.4,0,0,0,155.7,80l1.27,2,3.82-5.56Z" transform="translate(0.01 0)"/><path class="cls-4" d="M167.71,83.23a7.36,7.36,0,0,1,1.09-3.56,10.91,10.91,0,0,1,3-3.38,6.36,6.36,0,0,1,3.88-1.43A3.6,3.6,0,0,1,178,76a9.36,9.36,0,0,1,2.06,2.73,7,7,0,0,1,.83,3.07,6.07,6.07,0,0,1-1.19,3.34,10.62,10.62,0,0,1-3.11,3.08,6.78,6.78,0,0,1-3.65,1.22,4.83,4.83,0,0,1-3.5-1.92A6.27,6.27,0,0,1,167.71,83.23Zm7.54-6.45a9.36,9.36,0,0,0-2.78,2.83,8.79,8.79,0,0,0-1.3,3.54,5.86,5.86,0,0,0,2,4.39A8.05,8.05,0,0,0,177.62,82,8.67,8.67,0,0,0,175.25,76.78Z" transform="translate(0.01 0)"/><path class="cls-4" d="M186.74,78.94l.34.34a55.1,55.1,0,0,1,3.64-4.14A7.59,7.59,0,0,1,195,77a7.73,7.73,0,0,1,1.74,4q-1.81,6.66-10.37,8.4-3.18-.6-3.75-2.75,1.59-5.56,2.66-11.26l.07-6.74c1.74-.86,3.18-1,4.35-.54l-1.56,6.45-.42,2.65Zm-.41,8.4A9.8,9.8,0,0,0,191,84.91a7.23,7.23,0,0,0,2.19-4,4.67,4.67,0,0,0-.72-2,3.73,3.73,0,0,0-1.59-1.15,32.63,32.63,0,0,0-3.59,3.51Q186.95,84.27,186.33,87.34Z" transform="translate(0.01 0)"/><path class="cls-4" d="M200,80.39l-.13-4.57q2.74-1.23,4.13-.13l-1.14,4c-.19,1.85-.44,5-.73,9.41a3.71,3.71,0,0,1-2.38.28,3,3,0,0,1-2-1A53.78,53.78,0,0,0,200,80.39Zm4.42-8.63a2,2,0,0,1-.57,1.47,2,2,0,0,1-1.47.61,2.07,2.07,0,0,1-1.5-.61,2.1,2.1,0,0,1-.65-1.46,1.82,1.82,0,0,1,.6-1.44,2.08,2.08,0,0,1,1.49-.6,2.08,2.08,0,0,1,2.1,2Z" transform="translate(0.01 0)"/><path class="cls-4" d="M208.37,75.43l0-6.58q2.54-1.53,4.42-.68l-1.66,6c-.74,8.44-1.2,13.39-1.35,14.84a3.79,3.79,0,0,1-2.51.31,2.46,2.46,0,0,1-2-1A83.22,83.22,0,0,0,208.37,75.43Z" transform="translate(0.01 0)"/><path class="cls-4" d="M221.53,74.91a4.57,4.57,0,0,1,3.55,2.14,5.54,5.54,0,0,1,.35,4.12,36.11,36.11,0,0,1-8.37,2.89,4.17,4.17,0,0,0,2.26,3.12A12.12,12.12,0,0,0,224.1,85c1,0,1.37.51,1.2,1.64a8,8,0,0,1-2.84,1.73,15.59,15.59,0,0,1-3.61,1,6.92,6.92,0,0,1-4.28-2.22,6,6,0,0,1-1.34-4,7.37,7.37,0,0,1,1.36-3.83A15.4,15.4,0,0,1,221.53,74.91ZM217,82.47v.08a33.25,33.25,0,0,0,5.2-2A3.23,3.23,0,0,0,220.7,77l-.45.16a8,8,0,0,0-2.31,2.47A5.93,5.93,0,0,0,217,82.47Z" transform="translate(0.01 0)"/></g></g></g></svg>