<?xml version="1.0" encoding="utf-8"?>
<!-- Generator: Adobe Illustrator 25.1.0, SVG Export Plug-In . SVG Version: 6.00 Build 0)  -->
<svg version="1.1" id="Calque_1" xmlns="http://www.w3.org/2000/svg" xmlns:xlink="http://www.w3.org/1999/xlink" x="0px" y="0px"
	 viewBox="0 0 225.7 103.8" style="enable-background:new 0 0 225.7 103.8;" xml:space="preserve">
<style type="text/css">
	.st0{fill:#572931;}
	.st1{fill:#D9C6A5;}
	.st2{fill:#A35D6A;}
</style>
<g id="Logo_-_1">
	<path id="Tracé_40" class="st0" d="M58.8,103.1l-45-80.1c-0.3-0.6-0.2-1.4,0.4-1.8l0.6-0.3c0.6-0.3,1.3-0.2,1.7,0.4c0,0,0,0,0,0.1
		l45.1,80.1c0.3,0.6,0.2,1.4-0.4,1.8l-0.6,0.3C59.9,104,59.2,103.7,58.8,103.1z"/>
	<path id="Tracé_41" class="st0" d="M41.2,2.1L3,85.9c-0.2,0.6-0.9,0.9-1.6,0.7H1.3l-0.6-0.3c-0.7-0.3-0.9-1.1-0.6-1.8L38.4,0.7
		c0.2-0.6,0.9-0.9,1.6-0.7l0.1,0l0.6,0.3C41.3,0.7,41.6,1.5,41.2,2.1z"/>
	<ellipse id="Ellipse_2" class="st1" cx="24.3" cy="80.6" rx="7.1" ry="14.9"/>
	<g id="Atypique">
		<g>
			<path class="st0" d="M55.5,29l3.5-0.6c0.7,0.6,0.7,1.5-0.2,2.7l-3.1,0.2l0.8,8.8c-0.9,0.4-1.9,0.5-2.8,0.3c-1-0.1-2-0.4-2.8-1
				l0.6-7.8l-4.2,0.2l-1,0.1L43,40.1c-0.9,0.4-1.9,0.5-2.9,0.3c-0.8,0-1.6-0.4-2.1-1.1l3.5-6.8l-2.2,0.2c-0.7-0.8-0.7-1.7,0.2-2.8
				l3.5-0.1l2.4-4.5l2.7-7.7c0.9-0.5,2-0.8,3-0.9c1.5-0.3,3.1-0.2,4.6,0.4L55,22.7L55.5,29z M47.1,29.8l4.5-0.1l-0.3-9.4l-0.4,0.1
				L47.1,29.8z"/>
			<path class="st0" d="M74.5,24.6l-5.8,0.2c-0.1,1.6-0.3,3.8-0.7,6.7c-0.3,2.9-0.5,4.9-0.6,6c1.7-0.6,3.2-1.4,4.6-2.5
				c0.5,0,1,0.1,1.3,0.5c0.2,0.5,0.3,1,0.2,1.5c-1,0.8-2.1,1.5-3.2,2.1c-1.2,0.6-2.5,1.1-3.9,1.4c-2.2-0.2-3.6-1.1-4.1-2.7
				c1.4-4.8,2.5-8.9,3.2-12.5L61.4,26c-0.8-0.8-0.8-2.1,0-2.9l4.4,0.1L65.5,18c2.3-1.3,4.1-1.5,5.3-0.4l-1.6,5l5.3-1
				C75.2,22.3,75.2,23.2,74.5,24.6z"/>
			<path class="st0" d="M75.9,35.1l1.6-4.4c0.1-2.6,0-5.1-0.2-7.7c0.9-0.3,1.9-0.4,2.8-0.1c1,0.2,1.9,0.7,2.5,1.4
				c-0.5,3.4-1.3,6.8-2.4,10c0.2,0.4,0.5,0.8,0.8,1.1c0.5,0.4,1,0.6,1.6,0.8c1.5-1.1,2.9-2.5,4.1-4c0.4-3.1,1-6.2,1.8-9.2
				c1.1-0.2,2.2-0.2,3.3,0c0.7,0.2,1.3,0.6,1.7,1.3l-3,5.5c-1.1,5.8-1.9,11.6-2.5,17.4c-1.4,1.8-3.8,2.6-7.4,2.5
				C79.3,49.1,78,48.2,77,47c-0.9-0.9-1.5-2.1-1.8-3.4c0.5-0.8,1.3-1.5,2.2-1.9c0.8-0.3,1.6-0.3,2.3,0.2c0.2,1.9,1.1,3.6,2.5,4.9
				c0.6,0.1,1.2-0.1,1.7-0.5c0.4-1.8,0.9-4.4,1.5-7.8l1.4-2.6l-0.4-0.4c-1.1,1.3-2.4,2.6-3.7,3.7C78.7,38.7,76.4,37.3,75.9,35.1z"/>
			<path class="st0" d="M99.4,27.4l0.3,0.4c1.3-1.8,2.8-3.4,4.4-5c2,0.2,4,1,5.4,2.5c1.3,1.5,2,3.4,2.2,5.4
				c-0.6,2.2-1.7,4.1-3.3,5.7c-1.8,1.7-4,3.1-6.2,4.1c-1.1-0.2-2.2-0.5-3.2-1.1c-0.5,4.1-0.9,7.3-1.4,9.6c-0.9,0.4-2,0.5-3,0.4
				c-0.9-0.1-1.7-0.5-2.3-1.1c2.1-6.1,3.5-12.4,4.3-18.8l-1-5.2c1.3-1.2,3.1-1.7,4.8-1.4c0.2,1,0.2,2.1,0,3.1L99.4,27.4z M102,37.8
				c1.3-0.9,2.5-2,3.5-3.2c0.9-1.2,1.5-2.6,1.8-4.1c0-1-0.4-1.9-0.9-2.7c-0.5-0.8-1.3-1.4-2.2-1.7c-1.6,1.3-3.1,2.8-4.4,4.5
				c-0.1,1-0.3,3-0.6,6.1C100.1,37.2,101,37.6,102,37.8z"/>
			<path class="st0" d="M115.7,29.3l-0.2-5.6c2.3-1,4-1.1,5.1-0.2l-1.4,4.9c-0.2,2.3-0.5,6.1-0.9,11.6c-0.9,0.4-1.9,0.6-2.9,0.4
				c-0.9-0.1-1.8-0.5-2.4-1.2C114.2,35.9,115.1,32.6,115.7,29.3z M121.2,18.7c0,0.7-0.2,1.3-0.7,1.8c-0.5,0.5-1.1,0.8-1.8,0.8
				c-1.4,0-2.6-1.1-2.7-2.5c0-0.7,0.2-1.3,0.7-1.8c0.5-0.5,1.2-0.7,1.8-0.7c0.7,0,1.3,0.2,1.8,0.7C120.9,17.4,121.2,18,121.2,18.7z"
				/>
			<path class="st0" d="M135.2,44.9l0.3,0.2c0.4-0.3,1.1-1,2.1-1.8l1.8-1.6c0.7,0,1,0.3,1.1,1.2c-1,1.4-2.1,2.7-3.3,3.9
				c-1.5,1.6-2.4,2.5-2.6,2.9c-1-0.1-2.1-0.5-2.9-1.1c-0.6-0.4-1-1-1-1.7c1.5-4.8,2.6-8.6,3.2-11.5c-2.2,2.3-3.7,3.9-4.4,4.7
				c-1.9,0.1-3.7-0.5-5.2-1.6c-1.2-1.1-1.9-2.7-1.8-4.4c0-2.8,1.1-5.5,3-7.5c1.7-2.2,4.4-3.5,7.2-3.6c1.4,0.7,2.5,1.8,3.1,3.2
				c-0.1-1.1,0.1-2.2,0.5-3.2c1.1-0.2,2.2-0.2,3.3,0c0.7,0.2,1.3,0.7,1.7,1.4l-2.6,5.1C137,36.5,135.9,41.7,135.2,44.9z M127.1,33.9
				c-0.1,1.3,0.6,2.6,1.8,3.1c2.6-2.3,4.4-3.9,5.5-4.8l0.6-3.4c-0.4-0.7-0.8-1.4-1.3-2c-0.4-0.5-0.9-0.9-1.4-1.3
				c-1.6,0.7-2.9,1.9-3.8,3.4C127.6,30.4,127.1,32.1,127.1,33.9L127.1,33.9z"/>
			<path class="st0" d="M159.9,24.2l-2.6,5.1c-0.3,3.6-0.3,7.2-0.2,10.7c-0.8,0.4-1.8,0.6-2.7,0.4c-1-0.1-1.9-0.5-2.7-1.2l1.5-3.6
				l-0.4-0.3c-0.9,1.2-2.4,2.9-4.6,5.2c-3.8-0.5-6.1-1.8-6.7-4l2-5.2c0-0.8,0-1.6,0-2.4c0-2.2,0-4.1-0.1-5.9c1-0.3,2-0.3,2.9-0.1
				c0.9,0.2,1.7,0.6,2.4,1.3c-0.5,3.9-1.4,7.7-2.7,11.4c0.2,0.7,1,1.2,2.2,1.6c1.7-1.5,3.2-3.2,4.5-5c0.5-3.1,1.2-6.2,2.1-9.2
				c1.1-0.2,2.2-0.2,3.3,0C159,23,159.6,23.5,159.9,24.2z"/>
			<path class="st0" d="M171.5,22.5c1.8,0.1,3.4,1.1,4.4,2.6c0.8,1.6,0.9,3.4,0.4,5.1c-3.3,1.6-6.7,2.8-10.3,3.6
				c0.2,1.7,1.3,3.1,2.8,3.8c2.1-0.4,4.1-1.4,5.9-2.7c1.2,0,1.7,0.6,1.5,2c-1,0.9-2.2,1.7-3.5,2.1c-1.4,0.6-2.9,1-4.4,1.3
				c-2-0.2-3.9-1.2-5.3-2.7c-1.1-1.4-1.7-3.2-1.6-5c0.1-1.7,0.7-3.3,1.7-4.7C165.3,25.4,168.2,23.6,171.5,22.5z M165.9,31.9V32
				c2.2-0.6,4.3-1.5,6.4-2.5c0.3-2.1-0.3-3.5-1.8-4.4l-0.6,0.2c-1.2,0.8-2.1,1.8-2.8,3C166.4,29.4,166,30.6,165.9,31.9z"/>
		</g>
	</g>
	<g id="Hôtel_Mobile">
		<g>
			<path class="st2" d="M70.5,71c0.8-0.5,1.7-0.8,2.7-0.9c0.6,0,1.3,0.1,1.8,0.3l-2.2,7.9L72.8,79h2.9l4.2-0.6
				c0-0.1,0.2-0.9,0.4-2.4l0.2-5c0.8-0.5,1.7-0.8,2.7-0.9c0.6,0,1.3,0.1,1.8,0.3L82.9,78l2.1-0.4c0.7,0.4,0.6,1.2-0.1,2.3l-2.2,0.2
				c-0.4,3.6-0.6,6.6-0.8,9c-0.8,0.4-1.6,0.5-2.5,0.3c-0.8,0-1.5-0.4-1.9-1c0.9-2.9,1.5-5.6,2-8l-6.8,0.5c-0.1,0.9-0.2,2.3-0.4,4.3
				s-0.3,3.2-0.4,3.9c-0.8,0.4-1.6,0.5-2.5,0.3c-0.8,0-1.5-0.4-1.9-1c0.7-2.2,1.3-4.6,1.8-7.1l-1.7,0.2c-0.6-0.7-0.5-1.8,0.2-2.5
				h1.9c0.2-1,0.4-2,0.5-3.1L70.5,71z"/>
			<path class="st2" d="M86.3,83.2c0.1-1.3,0.4-2.5,1.1-3.6c0.7-1.3,1.8-2.5,3-3.4c1.1-0.9,2.5-1.4,3.9-1.4c0.9,0.1,1.7,0.5,2.3,1.1
				c0.8,0.8,1.5,1.7,2.1,2.7c0.5,0.9,0.8,2,0.8,3.1c-0.1,1.2-0.5,2.4-1.2,3.3c-0.8,1.2-1.9,2.3-3.1,3.1c-1.1,0.8-2.3,1.2-3.7,1.2
				c-1.4-0.1-2.7-0.8-3.5-1.9C86.9,86.4,86.3,84.8,86.3,83.2z M98,73.9c-0.6,0-1.1-0.1-1.7-0.3l-1.5-3l-3.7,3.3
				c-0.9,0-1.4-0.3-1.5-0.9l4.5-4.1c1.1-0.3,2.4-0.2,3.4,0.4l2.2,4C99.3,73.6,98.7,73.9,98,73.9z M93.9,76.8
				c-1.1,0.7-2.1,1.7-2.8,2.8c-0.7,1.1-1.1,2.3-1.3,3.5c0,1.7,0.7,3.3,2,4.4c2.2-1.1,3.9-3.1,4.4-5.5C96,80,95.2,78.2,93.9,76.8
				L93.9,76.8z"/>
			<path class="st2" d="M112.4,76.5l-4.7,0.2c-0.1,1.3-0.3,3.1-0.6,5.4s-0.4,3.9-0.5,4.9c1.3-0.5,2.6-1.1,3.7-2c0.4,0,0.7,0.1,1,0.4
				c0.2,0.4,0.2,0.8,0.2,1.2c-0.8,0.7-1.7,1.3-2.6,1.7c-1,0.5-2.1,0.9-3.2,1.1c-1.8-0.2-2.9-0.9-3.3-2.2c1.1-3.9,2-7.2,2.6-10.1
				l-3.4,0.6c-0.6-0.7-0.6-1.7,0-2.4h3.6l-0.2-4.2c1.9-1.1,3.3-1.2,4.3-0.3L108,75l4.3-0.8C113,74.7,113,75.5,112.4,76.5z"/>
			<path class="st2" d="M121.7,74.9c1.5,0.1,2.8,0.9,3.6,2.1c0.6,1.3,0.8,2.8,0.3,4.1c-2.7,1.3-5.5,2.3-8.4,2.9
				c0.2,1.3,1,2.5,2.3,3.1c1.7-0.4,3.4-1.1,4.8-2.2c1,0,1.4,0.5,1.2,1.6c-0.8,0.8-1.8,1.4-2.8,1.7c-1.2,0.5-2.4,0.8-3.6,1
				c-1.6-0.2-3.2-1-4.3-2.2c-0.9-1.1-1.4-2.5-1.3-4c0.1-1.4,0.5-2.7,1.3-3.8C116.6,77.3,119,75.7,121.7,74.9z M117.1,82.5
				L117.1,82.5c1.8-0.4,3.5-1.1,5.2-1.9c0.3-1.4-0.3-2.8-1.5-3.6l-0.4,0.2c-0.9,0.6-1.7,1.5-2.3,2.5
				C117.5,80.5,117.2,81.5,117.1,82.5z"/>
			<path class="st2" d="M130.8,75.4v-6.6c1.7-1,3.2-1.2,4.4-0.7l-1.7,6c-0.7,8.4-1.2,13.4-1.4,14.8c-0.8,0.4-1.7,0.5-2.5,0.3
				c-0.8,0-1.5-0.4-2-1C129,84.1,130.1,79.8,130.8,75.4z"/>
			<path class="st2" d="M163.7,70.7c0.7-0.3,1.6-0.5,2.4-0.6c0.6,0,1.2,0.2,1.7,0.6l-2.1,7.7c0,0.7-0.2,2.2-0.4,4.7s-0.4,4.4-0.5,6
				c-0.8,0.4-1.6,0.5-2.5,0.3c-0.8,0-1.5-0.4-1.9-1c1.1-3.7,1.9-7.4,2.6-11.1l0.1-1l-4.9,8c-1.2,0.5-2.5,0.2-3.4-0.6
				c-1.1-2.4-1.8-5-2.3-7.6l-0.6,2.3c-0.1,0.8-0.2,2.5-0.5,4.9s-0.4,4.4-0.6,5.8c-0.8,0.4-1.6,0.5-2.5,0.3c-0.8,0-1.5-0.4-1.9-1
				c1.2-4.1,2.2-8.2,2.9-12.4l0.3-5.2c0.7-0.5,1.5-0.7,2.4-0.7c0.8,0,1.5,0.2,2.1,0.7c0.2,3.1,0.7,6.2,1.6,9.2l1.3,2l3.8-5.6
				L163.7,70.7z"/>
			<path class="st2" d="M167.7,83.2c0.1-1.3,0.4-2.5,1.1-3.6c0.8-1.3,1.8-2.5,3-3.4c1.1-0.9,2.5-1.4,3.9-1.4
				c0.9,0.1,1.7,0.5,2.3,1.1c0.8,0.8,1.5,1.7,2.1,2.7c0.5,0.9,0.8,2,0.8,3.1c-0.1,1.2-0.5,2.4-1.2,3.3c-0.8,1.2-1.9,2.3-3.1,3.1
				c-1.1,0.8-2.3,1.2-3.6,1.2c-1.4-0.1-2.7-0.8-3.5-1.9C168.3,86.4,167.7,84.8,167.7,83.2z M175.3,76.8c-1.1,0.7-2.1,1.7-2.8,2.8
				c-0.7,1.1-1.1,2.3-1.3,3.5c0,1.7,0.7,3.3,2,4.4c2.3-1.1,3.9-3.1,4.4-5.5C177.5,80,176.6,78.2,175.3,76.8z"/>
			<path class="st2" d="M186.8,78.9l0.3,0.3c1.1-1.4,2.4-2.8,3.6-4.1c1.6,0.2,3.1,0.8,4.3,1.9c1,1.1,1.6,2.5,1.7,4
				c-1.2,4.4-4.7,7.2-10.4,8.4c-2.1-0.4-3.4-1.3-3.8-2.8c1.1-3.7,1.9-7.5,2.7-11.3l0.1-6.7c1.7-0.9,3.2-1,4.4-0.5l-1.6,6.4l-0.4,2.7
				L186.8,78.9z M186.3,87.3c1.7-0.4,3.4-1.2,4.7-2.4c1.1-1.1,1.9-2.5,2.2-4c-0.1-0.7-0.3-1.4-0.7-2c-0.4-0.5-1-0.9-1.6-1.2
				c-1.3,1.1-2.5,2.2-3.6,3.5C187.1,83.3,186.8,85.3,186.3,87.3z"/>
			<path class="st2" d="M200,80.4l-0.1-4.6c1.8-0.8,3.2-0.9,4.1-0.1l-1.1,4c-0.2,1.8-0.4,5-0.7,9.4c-0.7,0.4-1.6,0.5-2.4,0.3
				c-0.8-0.1-1.5-0.4-2-1C198.7,85.8,199.5,83.1,200,80.4z M204.4,71.8c0,0.5-0.2,1.1-0.6,1.5c-0.4,0.4-0.9,0.6-1.5,0.6
				c-0.6,0-1.1-0.2-1.5-0.6c-0.4-0.4-0.6-0.9-0.6-1.5c0-0.5,0.2-1.1,0.6-1.4c0.4-0.4,0.9-0.6,1.5-0.6
				C203.5,69.7,204.4,70.6,204.4,71.8L204.4,71.8z"/>
			<path class="st2" d="M208.4,75.4v-6.6c1.7-1,3.2-1.2,4.4-0.7l-1.7,6c-0.7,8.4-1.2,13.4-1.4,14.8c-0.8,0.4-1.7,0.5-2.5,0.3
				c-0.8,0-1.5-0.4-2-1C206.7,84.1,207.7,79.8,208.4,75.4z"/>
			<path class="st2" d="M221.5,74.9c1.5,0.1,2.8,0.9,3.6,2.1c0.6,1.3,0.8,2.8,0.4,4.1c-2.7,1.3-5.5,2.3-8.4,2.9
				c0.2,1.3,1,2.5,2.3,3.1c1.7-0.4,3.4-1.1,4.8-2.2c1,0,1.4,0.5,1.2,1.6c-0.8,0.8-1.8,1.4-2.8,1.7c-1.2,0.5-2.4,0.8-3.6,1
				c-1.6-0.2-3.2-1-4.3-2.2c-0.9-1.1-1.4-2.5-1.3-4c0.1-1.4,0.6-2.7,1.4-3.8C216.5,77.2,218.9,75.7,221.5,74.9z M217,82.5L217,82.5
				c1.8-0.4,3.5-1.1,5.2-1.9c0.3-1.4-0.3-2.8-1.5-3.6l-0.4,0.2c-0.9,0.6-1.7,1.5-2.3,2.5C217.4,80.5,217.1,81.5,217,82.5z"/>
		</g>
	</g>
</g>
</svg>
