<svg xmlns="http://www.w3.org/2000/svg" width="85.438" height="85.438" viewBox="0 0 85.438 85.438">
  <path id="Exclusion_11" data-name="Exclusion 11" d="M-5432.281,247.438a42.455,42.455,0,0,1-16.628-3.357,42.571,42.571,0,0,1-13.578-9.155,42.582,42.582,0,0,1-9.156-13.579A42.453,42.453,0,0,1-5475,204.719a42.451,42.451,0,0,1,3.357-16.628,42.58,42.58,0,0,1,9.155-13.579,42.581,42.581,0,0,1,13.578-9.155A42.448,42.448,0,0,1-5432.282,162a42.454,42.454,0,0,1,16.629,3.357,42.571,42.571,0,0,1,13.578,9.155,42.583,42.583,0,0,1,9.156,13.579,42.451,42.451,0,0,1,3.357,16.628,42.453,42.453,0,0,1-3.357,16.628,42.581,42.581,0,0,1-9.156,13.579,42.572,42.572,0,0,1-13.578,9.155A42.455,42.455,0,0,1-5432.281,247.438Zm-23-62.438a4.686,4.686,0,0,0-3.33,1.393,4.684,4.684,0,0,0-1.393,3.329v30.857a4.684,4.684,0,0,0,1.393,3.329,4.686,4.686,0,0,0,3.33,1.393h44.711a4.687,4.687,0,0,0,3.33-1.393,4.686,4.686,0,0,0,1.393-3.329V189.722a4.686,4.686,0,0,0-1.393-3.329,4.687,4.687,0,0,0-3.33-1.393Zm44.711,37.783h-44.711a2.234,2.234,0,0,1-2.2-2.2V189.722l20.466,20.466a5.835,5.835,0,0,0,4.093,1.7,5.911,5.911,0,0,0,4.093-1.7l20.466-20.466v30.857A2.233,2.233,0,0,1-5410.565,222.783ZM-5423,208.424a1.153,1.153,0,0,0-.919.443,1.28,1.28,0,0,0-.311.961,1.142,1.142,0,0,0,.438.8l10.579,9.32a1.486,1.486,0,0,0,.819.315,1.138,1.138,0,0,0,.944-.441,1.28,1.28,0,0,0,.311-.961,1.141,1.141,0,0,0-.436-.8l-10.58-9.32A1.282,1.282,0,0,0-5423,208.424Zm-20.01.148a1.224,1.224,0,0,0-.809.295l-10.516,9.194a1.266,1.266,0,0,0-.417.858,1.241,1.241,0,0,0,.291.9,1.341,1.341,0,0,0,1.008.441,1.31,1.31,0,0,0,.818-.315l10.454-9.194a1.268,1.268,0,0,0,.418-.87,1.222,1.222,0,0,0-.293-.893A1.26,1.26,0,0,0-5443.007,208.572Zm10.086.735a3.22,3.22,0,0,1-2.33-.944l-20.718-20.718a2.224,2.224,0,0,1,.693-.126h44.711a2.273,2.273,0,0,1,.692.126l-20.718,20.718A3.223,3.223,0,0,1-5432.921,209.307Z" transform="translate(5475 -162)" fill="#e8a830"/>
</svg>
