<svg id="noun_stars_1206491" xmlns="http://www.w3.org/2000/svg" width="182.701" height="79.755" viewBox="0 0 182.701 79.755">
  <g id="Groupe_29" data-name="Groupe 29">
    <path id="Tracé_37" data-name="Tracé 37" d="M131.463,0l9.05,28.282h29.979L146.17,45.251l9.616,28.282L131.463,56,107.707,73.533l9.05-28.282L93,28.282h29.413Z" transform="translate(-40.396)" fill="#9b6571" fill-rule="evenodd"/>
    <path id="Tracé_38" data-name="Tracé 38" d="M244.11,37l7.353,22.625H275.22L255.988,73.2l7.353,22.626L244.11,81.685,224.878,95.826,232.232,73.2,213,59.625h23.757Z" transform="translate(-92.519 -16.071)" fill="#9b6571" fill-rule="evenodd"/>
    <path id="Tracé_39" data-name="Tracé 39" d="M31.11,37,23.757,59.625H0L19.232,73.2,11.878,95.826,31.11,81.685,50.342,95.826,42.988,73.2,62.22,59.625H38.463Z" transform="translate(0 -16.071)" fill="#9b6571" fill-rule="evenodd"/>
  </g>
</svg>
