<svg id="noun_Happy_3122278" xmlns="http://www.w3.org/2000/svg" width="140.103" height="217.109" viewBox="0 0 140.103 217.109">
  <g id="Groupe_28" data-name="Groupe 28">
    <path id="Tracé_35" data-name="Tracé 35" d="M1157.828,293a18.777,18.777,0,1,1-13.332,32.058l-.1-.1A18.777,18.777,0,0,1,1157.828,293Z" transform="translate(-1082.292 -283.882)" fill="#9b6571"/>
    <path id="Tracé_36" data-name="Tracé 36" d="M664.553,266.769l45.187-62.59a1.976,1.976,0,0,1,2.85-.305l8.447,6.717a2.1,2.1,0,0,1,.509,2.85l-42.337,57.6,5.8,51.6,26.969,30.328a2.154,2.154,0,0,1,.407,1.934l-18.726,64.015a2.039,2.039,0,0,1-2.443,1.527l-16.08-3.46a2.059,2.059,0,0,1-1.323-2.544l16.792-52.82L667.1,333.328,628.831,343.4a1.773,1.773,0,0,1-1.425-.1l-44.474-20.456-.305-.305a1.979,1.979,0,0,1-.407-2.85l8.854-11.806a2.071,2.071,0,0,1,2.646-.814L627.2,323.456l21.067-5.7-6.208-47.833-57.5-37.554a1.989,1.989,0,0,1-.611-2.748l5.9-10.177a2.086,2.086,0,0,1,2.85-.509Z" transform="translate(-581.791 -203.406)" fill="#9b6571"/>
  </g>
</svg>
