<svg xmlns="http://www.w3.org/2000/svg" width="46.747" height="46.747" viewBox="0 0 46.747 46.747">
  <g id="Groupe_149" data-name="Groupe 149" transform="translate(-141.317 -695)">
    <g id="Groupe_41" data-name="Groupe 41" transform="translate(141.317 695)">
      <g id="Groupe_115" data-name="Groupe 115" transform="translate(0 0)">
        <g id="Groupe_110" data-name="Groupe 110" transform="translate(0)">
          <path id="Exclusion_9" data-name="Exclusion 9" d="M-4123.943,115.748h0a23.225,23.225,0,0,1-9.1-1.837,23.284,23.284,0,0,1-7.429-5.009,23.288,23.288,0,0,1-5.009-7.43,23.233,23.233,0,0,1-1.837-9.1,23.23,23.23,0,0,1,1.837-9.1,23.287,23.287,0,0,1,5.009-7.429,23.293,23.293,0,0,1,7.429-5.009,23.232,23.232,0,0,1,9.1-1.837,23.226,23.226,0,0,1,9.1,1.837,23.29,23.29,0,0,1,7.429,5.009,23.287,23.287,0,0,1,5.009,7.429,23.23,23.23,0,0,1,1.837,9.1,23.232,23.232,0,0,1-1.837,9.1,23.288,23.288,0,0,1-5.009,7.43,23.289,23.289,0,0,1-7.429,5.009A23.225,23.225,0,0,1-4123.943,115.748Zm.245-37.141a13.23,13.23,0,0,0-9.416,3.9,13.231,13.231,0,0,0-3.9,9.417A13.293,13.293,0,0,0-4135.1,98.8l-2.406,7.144,7.374-2.361a13.332,13.332,0,0,0,6.437,1.656,13.233,13.233,0,0,0,9.418-3.9,13.227,13.227,0,0,0,3.9-9.416,13.228,13.228,0,0,0-3.9-9.417A13.233,13.233,0,0,0-4123.7,78.606Zm0,24.4a11.018,11.018,0,0,1-6.1-1.833l-4.261,1.364,1.384-4.118a10.987,10.987,0,0,1-2.11-6.5A11.1,11.1,0,0,1-4123.7,80.837a11.1,11.1,0,0,1,11.087,11.087A11.1,11.1,0,0,1-4123.7,103.01Zm-4.47-17.6a1.249,1.249,0,0,0-.883.392l-.04.04-.027.026a3.738,3.738,0,0,0-1.23,2.725,6.546,6.546,0,0,0,1.256,3.567c.012.017.034.053.066.1a13.169,13.169,0,0,0,5.547,5.245,9.523,9.523,0,0,0,3.354,1.094,1.887,1.887,0,0,0,.407-.048,1.877,1.877,0,0,1,.288-.042,3.479,3.479,0,0,0,2.355-1.53,2.84,2.84,0,0,0,.259-1.608c-.065-.118-.221-.2-.457-.325l-.028-.015-.152-.082c-.4-.218-1.983-1.072-2.281-1.193a1.061,1.061,0,0,0-.379-.1.477.477,0,0,0-.393.244c-.252.348-.978,1.133-1.121,1.287l0,.005a.481.481,0,0,1-.358.181.815.815,0,0,1-.383-.124c-.053-.029-.122-.063-.222-.11a8.863,8.863,0,0,1-2.448-1.679,10.139,10.139,0,0,1-1.8-2.425c-.188-.35,0-.529.174-.688.1-.1.226-.233.343-.365l.009-.01c.061-.069.123-.138.182-.2a1.938,1.938,0,0,0,.309-.459l.016-.03.035-.065a.631.631,0,0,0-.006-.6c-.055-.123-.39-1.034-.634-1.7-.123-.335-.238-.648-.318-.864-.207-.552-.428-.6-.618-.6h-.126c-.1,0-.2-.014-.31-.025s-.226-.023-.341-.027Z" transform="translate(4147.317 -69)" fill="#e8a830"/>
        </g>
      </g>
    </g>
  </g>
</svg>
