<svg xmlns="http://www.w3.org/2000/svg" width="85.438" height="85.438" viewBox="0 0 85.438 85.438">
  <g id="Groupe_38" data-name="Groupe 38" transform="translate(-36.954 -219.965)">
    <g id="Groupe_97" data-name="Groupe 97">
      <path id="Exclusion_10" data-name="Exclusion 10" d="M-5730.281,128.438h0a42.45,42.45,0,0,1-16.627-3.357,42.582,42.582,0,0,1-13.578-9.155,42.579,42.579,0,0,1-9.155-13.579A42.451,42.451,0,0,1-5773,85.719a42.451,42.451,0,0,1,3.357-16.628,42.587,42.587,0,0,1,9.155-13.579,42.582,42.582,0,0,1,13.578-9.155A42.45,42.45,0,0,1-5730.283,43a42.452,42.452,0,0,1,16.629,3.357,42.574,42.574,0,0,1,13.579,9.155,42.586,42.586,0,0,1,9.155,13.579,42.451,42.451,0,0,1,3.357,16.628,42.451,42.451,0,0,1-3.357,16.628,42.579,42.579,0,0,1-9.155,13.579,42.575,42.575,0,0,1-13.579,9.155A42.448,42.448,0,0,1-5730.281,128.438Zm-20.187-27.361h0a25.673,25.673,0,0,0,13.89,4.072,26.107,26.107,0,0,0,11.06-2.345,24.386,24.386,0,0,0,8.081-6.056,26.591,26.591,0,0,0,4.957-8.3,26.213,26.213,0,0,0,1.685-9.081c0-.393-.009-.787-.026-1.172a18.343,18.343,0,0,0,4.522-4.69,18.159,18.159,0,0,1-5.206,1.426,9.074,9.074,0,0,0,3.985-5.013,18.131,18.131,0,0,1-5.754,2.2,9.017,9.017,0,0,0-2.95-2.091,9.017,9.017,0,0,0-3.666-.77,9.072,9.072,0,0,0-9.062,9.061,9.09,9.09,0,0,0,.236,2.065,25.506,25.506,0,0,1-10.487-2.819,25.7,25.7,0,0,1-8.19-6.649,9.051,9.051,0,0,0-1.229,4.557,9.061,9.061,0,0,0,4.032,7.543,9.081,9.081,0,0,1-4.1-1.134c0,.038,0,.077,0,.114a9.074,9.074,0,0,0,2.081,5.776,9.086,9.086,0,0,0,5.189,3.108,9.009,9.009,0,0,1-2.386.319,9.093,9.093,0,0,1-1.706-.162,9.059,9.059,0,0,0,8.464,6.292,18.18,18.18,0,0,1-5.2,2.851,18.222,18.222,0,0,1-6.056,1.028A18.369,18.369,0,0,1-5750.469,101.076Z" transform="translate(5809.954 176.965)" fill="rgb(247, 243, 231, 100%)"/>
    </g>
  </g>
</svg>
